<?xml version="1.0" encoding="utf-8"?>
<!-- Generator: Adobe Illustrator 14.0.0, SVG Export Plug-In . SVG Version: 6.00 Build 43363)  -->
<!DOCTYPE svg PUBLIC "-//W3C//DTD SVG 1.1//EN" "http://www.w3.org/Graphics/SVG/1.1/DTD/svg11.dtd">
<svg version="1.1" id="Layer_1" xmlns="http://www.w3.org/2000/svg" xmlns:xlink="http://www.w3.org/1999/xlink" x="0px" y="0px"
	 width="465.386px" height="520.83px" viewBox="0 0 465.386 520.83" enable-background="new 0 0 465.386 520.83"
	 xml:space="preserve">
<path fill="#B37402" d="M458.513,257.594c0,1.219,0,2.438,0,3.654c-0.42,15.414-2.285,29.379-5.061,42.438
	c-20.521-5.239-40.734-10.788-60.986-16.3c-14.234,43.404-43.25,75.134-87.127,89.654c-22.961,7.601-51.539,8.953-76.728,2.249
	c-23.053-6.137-41.729-17.727-56.772-31.479c7.611-8.688,16.325-16.276,24.17-24.731c17.125,15.345,37.33,28.948,67.734,28.948
	c31.121,0,53.127-10.971,69.42-27.264c15.996-15.997,29.23-37.479,29.23-67.452c0-31.529-11.043-52.289-27.264-69.419
	c4.793-5.407,9.818-10.379,15.457-16.021c1.121-1.12,5.271-4.183,5.342-5.058c0.08-1.024-3.827-4.216-5.342-5.622
	c-20.053-18.632-46.963-33.726-84.596-33.726c-14.041,0-26.676,1.954-37.662,5.34c-43.038,13.266-71.514,44.375-84.034,87.97
	c-11.376-2.865-22.496-5.986-33.727-8.995c-9.829,27.208-8.101,66.006,0,92.186c8.31,26.861,22.308,48.729,39.628,66.046
	c17.287,17.288,39.211,31.68,65.766,39.911c26.212,8.126,64.762,9.65,92.467,0.28c8.432,31.758,17.542,62.838,26.138,94.435
	c-19.761,5.722-41.921,9.043-66.893,9.556c-2.527,0-5.059,0-7.588,0c-80.089-2.888-134.311-34.739-177.063-75.321
	c-21.022-19.954-38.933-45.595-51.994-74.197C17.752,335.597,8.241,302.089,6.86,262.653c0-4.028,0-8.057,0-12.085
	c0.608-17.539,2.575-34.041,5.901-49.185c9.844-44.796,28.523-79.917,53.401-109.892C98.961,51.976,142.42,21.264,198.54,6.333
	c6.025,20.769,11.366,42.222,17.425,62.956c30.318-8.849,69.695-6.479,97.527,1.124c29.055,7.938,53.473,21.261,73.074,37.662
	C426.703,141.659,455.728,187.627,458.513,257.594z"/>
</svg>
